<svg width="46" height="46" viewBox="0 0 46 46" fill="none" xmlns="http://www.w3.org/2000/svg">
<path d="M23 0C10.318 0 0 10.318 0 23C0 35.6819 10.318 45.9999 23 45.9999C35.6819 45.9999 45.9999 35.6819 45.9999 23C45.9999 10.318 35.682 0 23 0ZM23 43.9999C11.42 43.9999 1.99997 34.5799 1.99997 23C1.99997 11.42 11.42 1.99997 23 1.99997C34.5799 1.99997 43.9999 11.42 43.9999 23C43.9999 34.5799 34.5799 43.9999 23 43.9999Z" fill="white"/>
<path d="M23 22C15.832 22 10 27.832 10 35C10 35.552 10.448 36.0001 11 36.0001C11.552 36.0001 12.0001 35.5519 12.0001 34.9999C12.0001 28.9339 16.934 24 23 24C29.066 24 34 28.9339 34 34.9999C34 35.5519 34.448 36 35 36C35.552 36 36 35.5519 36 34.9999C36 27.832 30.168 22 23 22Z" fill="white"/>
<path d="M23 6C19.1401 6 16 9.13997 16 13C16 16.8601 19.14 20.0001 23 20.0001C26.8601 20.0001 30.0001 16.86 30.0001 13C30.0001 9.14006 26.8601 6 23 6ZM23 18C20.2441 18 18.0001 15.756 18.0001 13C18.0001 10.2441 20.2441 8.00006 23 8.00006C25.756 8.00006 28 10.2441 28 13C28 15.756 25.7561 18 23 18Z" fill="white"/>
</svg>
