<svg width="15" height="15" viewBox="0 0 15 15" fill="none" xmlns="http://www.w3.org/2000/svg">
<path d="M9.08203 5.56641C8.92031 5.56641 8.78906 5.69766 8.78906 5.85938C8.78906 6.02109 8.92031 6.15234 9.08203 6.15234C9.24375 6.15234 9.375 6.02109 9.375 5.85938C9.375 5.69766 9.24375 5.56641 9.08203 5.56641Z" fill="#C27C2C"/>
<path d="M14.6567 12.9996L10.7461 9.08903C11.3832 8.12944 11.7188 7.01821 11.7188 5.85938C11.7188 2.62852 9.09023 0 5.85938 0C2.62852 0 0 2.62852 0 5.85938C0 9.09023 2.62852 11.7188 5.85938 11.7188C7.01824 11.7188 8.12947 11.3832 9.08903 10.7462L10.1699 11.8271C10.1701 11.8272 10.1702 11.8274 10.1704 11.8275L12.9996 14.6567C13.221 14.8781 13.5152 15 13.8281 15C14.141 15 14.4353 14.8781 14.6566 14.6568C14.878 14.4355 15 14.1412 15 13.8281C15 13.515 14.878 13.2208 14.6567 12.9996ZM8.95125 10.1287C8.95125 10.1287 8.95122 10.1287 8.95119 10.1288C8.04688 10.7856 6.97778 11.1328 5.85938 11.1328C2.9516 11.1328 0.585938 8.76715 0.585938 5.85938C0.585938 2.9516 2.9516 0.585938 5.85938 0.585938C8.76715 0.585938 11.1328 2.9516 11.1328 5.85938C11.1328 6.97778 10.7856 8.04688 10.1287 8.95122C9.80013 9.40394 9.40397 9.80013 8.95125 10.1287ZM9.5659 10.3943C9.86912 10.1463 10.1463 9.86909 10.3943 9.5659L11.2255 10.3971C10.9727 10.6954 10.6954 10.9728 10.3971 11.2255L9.5659 10.3943ZM14.2424 14.2424C14.1316 14.3531 13.9845 14.4141 13.8281 14.4141C13.6717 14.4141 13.5246 14.3531 13.4139 14.2424L10.8125 11.6409C11.1092 11.3863 11.3863 11.1092 11.6409 10.8125L14.2424 13.414C14.3531 13.5246 14.4141 13.6716 14.4141 13.8281C14.4141 13.9846 14.3531 14.1317 14.2424 14.2424Z" fill="#C27C2C"/>
<path d="M5.85938 1.17188C3.27466 1.17188 1.17188 3.27466 1.17188 5.85938C1.17188 8.44409 3.27466 10.5469 5.85938 10.5469C8.44409 10.5469 10.5469 8.44409 10.5469 5.85938C10.5469 3.27466 8.44409 1.17188 5.85938 1.17188ZM5.85938 9.96094C3.59777 9.96094 1.75781 8.12098 1.75781 5.85938C1.75781 3.59777 3.59777 1.75781 5.85938 1.75781C8.12098 1.75781 9.96094 3.59777 9.96094 5.85938C9.96094 8.12098 8.12098 9.96094 5.85938 9.96094Z" fill="#C27C2C"/>
<path d="M9.14253 4.60175C8.89026 3.94515 8.45101 3.38376 7.87222 2.97832C7.27966 2.56318 6.58362 2.34375 5.85938 2.34375C5.6976 2.34375 5.56641 2.47494 5.56641 2.63672C5.56641 2.7985 5.6976 2.92969 5.85938 2.92969C7.06345 2.92969 8.16302 3.68607 8.59559 4.81192C8.64036 4.92841 8.75136 4.99989 8.86914 4.99989C8.90406 4.99989 8.93959 4.99359 8.97414 4.98032C9.12516 4.92228 9.20057 4.7528 9.14253 4.60175Z" fill="#C27C2C"/>
</svg>
