<svg width="17" height="17" viewBox="0 0 17 17" fill="none" xmlns="http://www.w3.org/2000/svg">
<rect width="17" height="17" rx="8.5" fill="#C27C2C"/>
<path d="M3.71777 9.21777H7.78223V13.2822C7.78223 13.68 8.10237 14 8.5 14C8.89763 14 9.21777 13.6797 9.21777 13.2822V9.21777H13.2822C13.68 9.21777 14 8.89763 14 8.5C14 8.10237 13.6797 7.78223 13.2822 7.78223H9.21777V3.71777C9.21777 3.32003 8.89763 3 8.5 3C8.10237 3 7.78223 3.32015 7.78223 3.71777V7.78223H3.71777C3.32003 7.78223 3 8.10237 3 8.5C3 8.89763 3.32332 9.21777 3.71777 9.21777Z" fill="white"/>
</svg>
